<svg width="26" height="25" viewBox="0 0 26 25" fill="none" xmlns="http://www.w3.org/2000/svg">
<path d="M13 24.1333L12.35 23.5917C9.425 21.425 0 13.625 0 6.90834C0 3.11667 3.14167 0.0833359 7.04167 0.0833359C9.425 0.0833359 11.7 1.275 13 3.225C14.3 1.275 16.575 0.0833359 18.9583 0.0833359C22.8583 0.0833359 26 3.11667 26 6.90834C26 13.7333 16.575 21.425 13.65 23.7L13 24.1333ZM7.04167 2.14167C4.33333 2.14167 2.16667 4.2 2.16667 6.8C2.16667 11.2417 7.69167 17.0917 13 21.3167C18.3083 17.0917 23.8333 11.2417 23.8333 6.8C23.8333 4.2 21.6667 2.14167 18.9583 2.14167C17.225 2.14167 15.7083 3.00834 14.8417 4.30834L13 7.23334L11.1583 4.41667C10.2917 3.00834 8.775 2.14167 7.04167 2.14167Z" fill="black"/>
</svg>
